<?xml version="1.0" encoding="UTF-8" standalone="no"?>
<!-- Created with Inkscape (http://www.inkscape.org/) -->

<svg
   xmlns:dc="http://purl.org/dc/elements/1.1/"
   xmlns:cc="http://creativecommons.org/ns#"
   xmlns:rdf="http://www.w3.org/1999/02/22-rdf-syntax-ns#"
   xmlns:svg="http://www.w3.org/2000/svg"
   xmlns="http://www.w3.org/2000/svg"
   xmlns:sodipodi="http://sodipodi.sourceforge.net/DTD/sodipodi-0.dtd"
   xmlns:inkscape="http://www.inkscape.org/namespaces/inkscape"
   width="147.20969mm"
   height="222.60532mm"
   viewBox="0 0 521.60912 788.75899"
   id="svg2"
   version="1.1"
   inkscape:version="0.91 r13725"
   sodipodi:docname="ear.svg"
   inkscape:export-filename="/media/ai/Data/20160623bkup/Personal/websites/CreativeCommonsChristian/52StoriesWithDeborah/07Exodus4_10-17/07Exodus4_10-17_01.png"
   inkscape:export-xdpi="300"
   inkscape:export-ydpi="300">
  <defs
     id="defs4" />
  <sodipodi:namedview
     id="base"
     pagecolor="#ffffff"
     bordercolor="#666666"
     borderopacity="1.0"
     inkscape:pageopacity="0.0"
     inkscape:pageshadow="2"
     inkscape:zoom="0.35"
     inkscape:cx="-268.28992"
     inkscape:cy="391.67918"
     inkscape:document-units="px"
     inkscape:current-layer="layer1"
     showgrid="false"
     inkscape:window-width="1329"
     inkscape:window-height="744"
     inkscape:window-x="271"
     inkscape:window-y="924"
     inkscape:window-maximized="1"
     fit-margin-top="0"
     fit-margin-left="0"
     fit-margin-right="0"
     fit-margin-bottom="0" />
  <metadata
     id="metadata7">
    <rdf:RDF>
      <cc:Work
         rdf:about="">
        <dc:format>image/svg+xml</dc:format>
        <dc:type
           rdf:resource="http://purl.org/dc/dcmitype/StillImage" />
        <dc:title></dc:title>
      </cc:Work>
    </rdf:RDF>
  </metadata>
  <g
     inkscape:label="Layer 1"
     inkscape:groupmode="layer"
     id="layer1"
     transform="translate(-266.84456,-295.10089)">
    <path
       style="fill:#000000"
       d="m 595.84514,1083.0987 c -48.36813,-3.4653 -94.71065,-26.0599 -133.60323,-65.1391 -25.71603,-25.83972 -46.11309,-61.50926 -48.59094,-84.97484 l -1.00279,-9.49473 -9.79167,-5.69604 c -12.55687,-7.30444 -33.11835,-26.42079 -46.95426,-43.65392 -43.26535,-53.8887 -76.74431,-132.38362 -85.84154,-201.26465 -4.77822,-36.17805 -4.16467,-85.94029 1.39054,-112.78567 17.10796,-82.67442 80.53281,-172.56378 156.49037,-221.78703 39.47354,-25.58028 78.8647,-39.23009 122.26205,-42.36616 54.37658,-3.92944 90.08313,5.67155 133.02209,35.76775 22.95233,16.08741 48.01892,42.25626 63.37721,66.16418 20.75271,32.3053 35.57338,73.83658 40.27104,112.8498 2.0782,17.25805 2.11211,54.76489 0.0645,70.34782 -3.51456,26.73565 -14.8655,50.58974 -32.36948,68.02491 -13.21409,13.16209 -24.76932,18.82174 -38.42774,18.82174 -7.51083,0 -8.18806,0.42348 -19.37507,12.11618 -18.26823,19.09385 -27.37175,37.94382 -27.271,56.46802 0.0794,14.45056 10.2517,27.61161 23.65967,30.60867 16.56074,3.70182 34.89961,16.88613 41.78878,30.04293 4.17559,7.97478 4.1698,26.71877 -0.0165,35.14168 -2.50052,5.03793 -2.76652,6.97348 -1.25009,9.09822 17.13178,24.00491 23.15034,47.74222 21.23607,83.75579 -2.94402,55.38809 -23.04,100.84545 -56.95833,128.84145 -20.44337,16.874 -41.251,26.4872 -61.4416,28.3863 -18.964,1.7838 -24.53013,1.8832 -40.67269,0.7267 z m 33.37822,-41.4625 c 18.81876,-2.5959 31.45883,-9.1991 46.86427,-24.482 25.67418,-25.46976 36.886,-57.60104 36.77054,-105.37838 -0.0662,-27.65644 -2.21351,-37.58364 -13.00897,-60.15732 l -7.55714,-15.80223 -2.38308,9.09822 c -4.3769,16.71067 -13.46139,27.29301 -30.3763,35.38474 -10.11144,4.83706 -11.83712,5.13454 -28.94889,4.98991 -35.76047,-0.30217 -50.22598,-11.59731 -65.50205,-51.14639 -4.25598,-11.01855 -8.97035,-20.12295 -12.36614,-23.88156 -3.05468,-3.38128 -13.41226,-10.36039 -23.36174,-15.74146 -39.1819,-21.19125 -59.307,-38.05841 -68.12748,-57.09817 -5.5825,-12.05062 -6.89578,-38.39967 -2.82557,-56.69415 9.15446,-41.148 45.68183,-81.83425 91.95323,-102.42275 19.13024,-8.51201 29.47062,-10.76165 35.73334,-7.77412 3.50314,1.67115 4.92859,3.65015 5.29053,7.34474 0.65143,6.64931 -4.53488,11.78738 -20.92822,20.73352 -17.27686,9.42824 -34.07565,20.36888 -43.5775,28.38099 -23.26299,19.61565 -37.62593,52.31763 -35.77139,81.44473 1.2008,18.85686 10.70927,28.14366 53.13046,51.89206 35.30672,19.76552 44.17997,29.01361 54.19363,56.4829 9.39565,25.77372 13.76296,29.75923 32.60935,29.75923 10.95574,0 11.8118,-0.30493 23.65471,-8.42159 14.29611,-9.79806 24.06975,-19.13973 24.93805,-23.83573 0.80379,-4.34757 8.53397,-5.26809 14.02499,-1.67016 5.42767,3.55636 7.9267,2.56509 4.79725,-1.90296 -1.75348,-2.50339 -5.06143,-3.90942 -11.17659,-4.75049 -26.28079,-3.61453 -50.56344,-27.65566 -55.92014,-55.36393 -2.02063,-10.45187 -0.79188,-28.15348 2.87074,-41.35555 8.34207,-30.06978 35.56196,-60.0531 60.26644,-66.38469 7.40645,-1.89822 9.71227,-3.66289 19.10147,-14.61886 12.77489,-14.90646 21.13847,-31.16289 24.70811,-48.02575 3.69239,-17.44289 2.34271,-64.20349 -2.46446,-85.37648 -11.43712,-50.37486 -37.49459,-92.50949 -75.26213,-121.69818 -34.57637,-26.72246 -66.19467,-35.68448 -110.21864,-31.24097 -55.94463,5.64674 -102.74372,29.99573 -150.0677,78.07817 -45.94816,46.68456 -78.21127,104.09406 -87.67276,156.00662 -3.7043,20.32432 -3.64921,77.56536 0.0976,101.44505 12.30509,78.42527 47.45003,155.15823 93.46767,204.07103 11.87284,12.61978 14.55467,14.67113 19.1807,14.67113 7.4655,0 10.28909,3.89233 12.59954,17.36933 4.30727,25.12305 16.26977,45.81769 40.21811,69.57557 43.56889,43.22233 100.87742,65.41623 151.04633,58.49593 z M 388.10101,600.77258 c -1.05407,-2.65012 -2.2949,-10.19458 -2.75742,-16.76543 -1.25175,-17.7847 4.02638,-38.3834 16.07027,-62.71601 23.87638,-48.23827 64.13749,-81.5983 115.85574,-95.99742 30.41221,-8.46719 76.21215,-8.32713 102.05225,0.3121 39.85484,13.3247 71.18712,43.15821 87.69692,83.5017 10.08529,24.64454 12.36464,41.99584 9.70614,73.88174 -1.52684,18.31091 -2.55362,21.41654 -6.57156,19.87475 -2.01269,-0.77235 -2.64824,-3.35051 -2.64824,-10.74378 0,-11.06454 -10.26726,-48.45122 -17.91853,-65.24747 -13.913,-30.54245 -36.95978,-55.92979 -62.45101,-68.79363 -19.84587,-10.01499 -25.17196,-11.01022 -58.58509,-10.94736 -37.41767,0.07 -51.17633,2.94176 -78.57554,16.39874 -48.5921,23.86584 -82.26908,66.96577 -92.92293,118.92355 -2.26877,11.06437 -4.77971,20.79655 -5.57986,21.62702 -0.85755,0.89025 -2.2413,-0.46759 -3.37114,-3.3085 z"
       id="path4204"
       inkscape:connector-curvature="0"
       sodipodi:nodetypes="csccssssssssscssscscccssscccscscsssscssssssssssssscscsssssssssssssssscccsssssscsssssscc" />
  </g>
</svg>
